#define bullet_width 5
#define bullet_height 8
static unsigned char bullet_bits[] = {
   0x03, 0x06, 0x0c, 0x18, 0x18, 0x0c, 0x06, 0x03 };
