#define desk_toggled_pressed_width 10
#define desk_toggled_pressed_height 10
static unsigned char desk_toggled_pressed_bits[] = {
   0x00, 0x00, 0x00, 0x00, 0xb6, 0x01, 0xb6, 0x01, 0x00, 0x00, 0xb6, 0x01,
   0xb6, 0x01, 0x00, 0x00, 0xb6, 0x01, 0xb6, 0x01 };
