#define max_pressed_width 10
#define max_pressed_height 10
static unsigned char max_pressed_bits[] = {
   0x00, 0x00, 0x00, 0x00, 0xfe, 0x01, 0xfe, 0x01, 0x86, 0x01, 0x86, 0x01,
   0x86, 0x01, 0x86, 0x01, 0xfe, 0x01, 0xfe, 0x01 };
